<svg xmlns="http://www.w3.org/2000/svg" width="119.95" height="35" viewBox="0 0 119.95 35"><rect class="svg__rect" x="0" y="0" width="0" height="35" fill="#DE2F4C"/><rect class="svg__rect" x="0" y="0" width="119.95" height="35" fill="#165A82"/><path class="svg__text" d="" fill="#FFFFFF"/><path class="svg__text" d="M20.93 22L14.19 22L14.19 13.60L20.78 13.60L20.78 15.44L16.54 15.44L16.54 16.85L20.28 16.85L20.28 18.63L16.54 18.63L16.54 20.17L20.93 20.17L20.93 22ZM27.53 15.48L24.95 15.48L24.95 13.60L32.47 13.60L32.47 15.48L29.90 15.48L29.90 22L27.53 22L27.53 15.48ZM39.22 22L36.84 22L36.84 13.60L39.22 13.60L39.22 16.76L42.46 16.76L42.46 13.60L44.83 13.60L44.83 22L42.46 22L42.46 18.72L39.22 18.72L39.22 22ZM56.74 22L49.99 22L49.99 13.60L56.59 13.60L56.59 15.44L52.35 15.44L52.35 16.85L56.08 16.85L56.08 18.63L52.35 18.63L52.35 20.17L56.74 20.17L56.74 22ZM63.92 22L61.54 22L61.54 13.60L65.39 13.60Q66.53 13.60 67.37 13.98Q68.21 14.35 68.66 15.06Q69.12 15.76 69.12 16.71L69.12 16.71Q69.12 17.62 68.69 18.30Q68.26 18.98 67.47 19.36L67.47 19.36L69.28 22L66.74 22L65.22 19.77L63.92 19.77L63.92 22ZM63.92 15.47L63.92 17.93L65.24 17.93Q65.97 17.93 66.35 17.61Q66.72 17.29 66.72 16.71L66.72 16.71Q66.72 16.12 66.35 15.79Q65.97 15.47 65.24 15.47L65.24 15.47L63.92 15.47ZM80.65 22L73.91 22L73.91 13.60L80.50 13.60L80.50 15.44L76.26 15.44L76.26 16.85L79.99 16.85L79.99 18.63L76.26 18.63L76.26 20.17L80.65 20.17L80.65 22ZM85.39 18.26L85.39 18.26L85.39 13.60L87.76 13.60L87.76 18.19Q87.76 20.20 89.36 20.20L89.36 20.20Q90.94 20.20 90.94 18.19L90.94 18.19L90.94 13.60L93.28 13.60L93.28 18.26Q93.28 20.13 92.24 21.15Q91.20 22.17 89.33 22.17L89.33 22.17Q87.46 22.17 86.42 21.15Q85.39 20.13 85.39 18.26ZM100.57 22L98.37 22L98.37 13.60L100.33 13.60L103.28 18.45L106.16 13.60L108.11 13.60L108.14 22L105.96 22L105.93 17.55L103.77 21.17L102.72 21.17L100.57 17.67L100.57 22Z" fill="#FFFFFF" x="39"/></svg>