<svg xmlns="http://www.w3.org/2000/svg" width="109.60000000000001" height="35" viewBox="0 0 109.60000000000001 35"><rect class="svg__rect" x="0" y="0" width="0" height="35" fill="#DE2F4C"/><rect class="svg__rect" x="0" y="0" width="109.60000000000001" height="35" fill="#000000"/><path class="svg__text" d="" fill="#FFFFFF"/><path class="svg__text" d="M13.60 21.24L13.60 21.24L14.38 19.49Q14.94 19.86 15.69 20.09Q16.43 20.32 17.15 20.32L17.15 20.32Q18.52 20.32 18.52 19.64L18.52 19.64Q18.52 19.28 18.13 19.11Q17.74 18.93 16.88 18.74L16.88 18.74Q15.93 18.53 15.29 18.30Q14.66 18.06 14.20 17.55Q13.75 17.03 13.75 16.16L13.75 16.16Q13.75 15.39 14.17 14.77Q14.59 14.15 15.42 13.79Q16.26 13.43 17.46 13.43L17.46 13.43Q18.29 13.43 19.10 13.62Q19.90 13.80 20.52 14.17L20.52 14.17L19.78 15.93Q18.58 15.28 17.45 15.28L17.45 15.28Q16.74 15.28 16.42 15.49Q16.10 15.70 16.10 16.04L16.10 16.04Q16.10 16.37 16.48 16.54Q16.87 16.71 17.72 16.89L17.72 16.89Q18.68 17.10 19.31 17.33Q19.94 17.56 20.40 18.07Q20.86 18.58 20.86 19.46L20.86 19.46Q20.86 20.21 20.44 20.83Q20.02 21.44 19.18 21.80Q18.34 22.17 17.14 22.17L17.14 22.17Q16.12 22.17 15.16 21.92Q14.20 21.67 13.60 21.24ZM25.01 17.80L25.01 17.80Q25.01 16.55 25.61 15.55Q26.22 14.56 27.28 14.00Q28.34 13.43 29.67 13.43L29.67 13.43Q31.00 13.43 32.07 14.00Q33.13 14.56 33.74 15.55Q34.34 16.55 34.34 17.80L34.34 17.80Q34.34 19.05 33.74 20.04Q33.13 21.04 32.07 21.60Q31.01 22.17 29.67 22.17L29.67 22.17Q28.34 22.17 27.28 21.60Q26.22 21.04 25.61 20.04Q25.01 19.05 25.01 17.80ZM27.41 17.80L27.41 17.80Q27.41 18.51 27.71 19.05Q28.01 19.60 28.53 19.90Q29.04 20.20 29.67 20.20L29.67 20.20Q30.31 20.20 30.83 19.90Q31.34 19.60 31.64 19.05Q31.94 18.51 31.94 17.80L31.94 17.80Q31.94 17.09 31.64 16.54Q31.34 16 30.83 15.70Q30.31 15.40 29.67 15.40L29.67 15.40Q29.04 15.40 28.52 15.70Q28.01 16 27.71 16.54Q27.41 17.09 27.41 17.80ZM45.46 22L39.07 22L39.07 13.60L41.45 13.60L41.45 20.11L45.46 20.11L45.46 22ZM52.26 22L49.88 22L49.88 13.60L52.26 13.60L52.26 22ZM61.40 22L57.43 22L57.43 13.60L61.40 13.60Q62.79 13.60 63.85 14.12Q64.92 14.63 65.51 15.58Q66.10 16.53 66.10 17.80L66.10 17.80Q66.10 19.07 65.51 20.02Q64.92 20.97 63.85 21.48Q62.79 22 61.40 22L61.40 22ZM59.81 15.50L59.81 20.10L61.31 20.10Q62.39 20.10 63.04 19.49Q63.69 18.88 63.69 17.80L63.69 17.80Q63.69 16.72 63.04 16.11Q62.39 15.50 61.31 15.50L61.31 15.50L59.81 15.50ZM73.20 22L70.82 22L70.82 13.60L73.20 13.60L73.20 22ZM80.17 15.48L77.59 15.48L77.59 13.60L85.11 13.60L85.11 15.48L82.54 15.48L82.54 22L80.17 22L80.17 15.48ZM91.61 18.95L88.40 13.60L90.91 13.60L92.90 16.94L94.89 13.60L97.20 13.60L93.98 18.99L93.98 22L91.61 22L91.61 18.95Z" fill="#FFFFFF" x="39"/></svg>