<svg xmlns="http://www.w3.org/2000/svg" width="103.08999999999999" height="35" viewBox="0 0 103.08999999999999 35"><rect class="svg__rect" x="0" y="0" width="0" height="35" fill="#DE2F4C"/><rect class="svg__rect" x="0" y="0" width="103.08999999999999" height="35" fill="#0A3955"/><path class="svg__text" d="" fill="#FFFFFF"/><path class="svg__text" d="M15.98 15.48L13.40 15.48L13.40 13.60L20.92 13.60L20.92 15.48L18.35 15.48L18.35 22L15.98 22L15.98 15.48ZM27.67 22L25.29 22L25.29 13.60L29.14 13.60Q30.28 13.60 31.12 13.98Q31.95 14.35 32.41 15.06Q32.87 15.76 32.87 16.71L32.87 16.71Q32.87 17.62 32.44 18.30Q32.01 18.98 31.22 19.36L31.22 19.36L33.03 22L30.49 22L28.97 19.77L27.67 19.77L27.67 22ZM27.67 15.47L27.67 17.93L28.99 17.93Q29.72 17.93 30.09 17.61Q30.47 17.29 30.47 16.71L30.47 16.71Q30.47 16.12 30.09 15.79Q29.72 15.47 28.99 15.47L28.99 15.47L27.67 15.47ZM37.58 18.26L37.58 18.26L37.58 13.60L39.96 13.60L39.96 18.19Q39.96 20.20 41.56 20.20L41.56 20.20Q43.14 20.20 43.14 18.19L43.14 18.19L43.14 13.60L45.48 13.60L45.48 18.26Q45.48 20.13 44.44 21.15Q43.40 22.17 41.53 22.17L41.53 22.17Q39.66 22.17 38.62 21.15Q37.58 20.13 37.58 18.26ZM52.95 22L50.57 22L50.57 13.60L57.16 13.60L57.16 15.44L52.95 15.44L52.95 17.28L56.66 17.28L56.66 19.12L52.95 19.12L52.95 22ZM64.13 22L61.75 22L61.75 13.60L68.35 13.60L68.35 15.44L64.13 15.44L64.13 17.28L67.84 17.28L67.84 19.12L64.13 19.12L64.13 22ZM79.33 22L72.94 22L72.94 13.60L75.32 13.60L75.32 20.11L79.33 20.11L79.33 22ZM90.49 22L83.74 22L83.74 13.60L90.34 13.60L90.34 15.44L86.10 15.44L86.10 16.85L89.83 16.85L89.83 18.63L86.10 18.63L86.10 20.17L90.49 20.17L90.49 22Z" fill="#FFFFFF" x="39"/></svg>